<svg width="200" height="66" viewBox="0 0 200 66" fill="none" xmlns="http://www.w3.org/2000/svg">
<path d="M2.53352 62.1385H2.67852C2.81385 62.1385 2.93952 62.0805 3.05552 61.9645C3.17152 61.8485 3.26818 61.7131 3.34552 61.5585C3.44218 61.4038 3.50985 61.2395 3.54852 61.0655C3.58718 60.8721 3.60652 60.6981 3.60652 60.5435V45.1155C3.60652 44.9801 3.58718 44.8255 3.54852 44.6515C3.50985 44.4775 3.44218 44.3131 3.34552 44.1585C3.26818 43.9845 3.16185 43.8491 3.02652 43.7525C2.91052 43.6365 2.77518 43.5785 2.62052 43.5785H2.47552V43.2885H7.23152C9.02952 43.2885 10.4312 43.6848 11.4365 44.4775C12.4612 45.2701 12.9735 46.3238 12.9735 47.6385C12.9735 48.1991 12.8768 48.7018 12.6835 49.1465C12.4902 49.5911 12.2388 49.9875 11.9295 50.3355C11.6395 50.6835 11.3205 50.9831 10.9725 51.2345C10.6245 51.4665 10.2958 51.6598 9.98652 51.8145C10.7985 51.9691 11.4752 52.2301 12.0165 52.5975C12.5578 52.9648 12.9928 53.3901 13.3215 53.8735C13.6695 54.3375 13.9112 54.8401 14.0465 55.3815C14.1818 55.9228 14.2495 56.4545 14.2495 56.9765C14.2495 57.9818 14.0658 58.8325 13.6985 59.5285C13.3312 60.2051 12.8382 60.7658 12.2195 61.2105C11.6202 61.6358 10.9242 61.9451 10.1315 62.1385C9.35818 62.3318 8.55585 62.4285 7.72452 62.4285H2.53352V62.1385ZM12.2775 57.1505C12.1228 55.6618 11.6202 54.5115 10.7695 53.6995C9.91885 52.8875 8.72018 52.4815 7.17352 52.4815H5.54952V61.4715H7.23152C8.79752 61.4715 10.0252 61.1235 10.9145 60.4275C11.8232 59.7121 12.2775 58.7261 12.2775 57.4695V57.1505ZM11.0885 47.8995C11.0305 46.7781 10.6342 45.8888 9.89952 45.2315C9.18418 44.5741 8.21752 44.2455 6.99952 44.2455H5.54952V51.5535H7.05752C7.86952 51.5535 8.52685 51.4471 9.02952 51.2345C9.55152 51.0218 9.96718 50.7511 10.2765 50.4225C10.5858 50.0745 10.7985 49.6975 10.9145 49.2915C11.0305 48.8855 11.0885 48.4891 11.0885 48.1025V47.8995ZM18.462 62.1385H18.607C18.7617 62.1385 18.897 62.0901 19.013 61.9935C19.129 61.8775 19.2257 61.7421 19.303 61.5875C19.3997 61.4328 19.4673 61.2685 19.506 61.0945C19.564 60.9205 19.593 60.7561 19.593 60.6015V45.0865C19.593 44.9511 19.564 44.7965 19.506 44.6225C19.4673 44.4485 19.3997 44.2841 19.303 44.1295C19.2257 43.9748 19.129 43.8491 19.013 43.7525C18.897 43.6365 18.7617 43.5785 18.607 43.5785H18.462V43.2885H29.627V45.9855H29.337C29.2983 45.5408 29.1243 45.1541 28.815 44.8255C28.5057 44.4775 28.0223 44.3035 27.365 44.3035H21.536V51.6405H26.35C26.7947 51.6405 27.162 51.5051 27.452 51.2345C27.7613 50.9638 27.916 50.6448 27.916 50.2775H28.206V53.9025H27.916C27.916 53.5545 27.771 53.2548 27.481 53.0035C27.191 52.7521 26.814 52.6265 26.35 52.6265H21.536V61.4135H27.887C28.2543 61.4135 28.5733 61.3265 28.844 61.1525C29.1147 60.9785 29.337 60.7755 29.511 60.5435C29.7043 60.2921 29.8397 60.0311 29.917 59.7605C30.0137 59.4705 30.062 59.2288 30.062 59.0355H30.352V62.4285H18.462V62.1385ZM43.5223 44.0425C42.0916 44.0425 40.8446 44.3035 39.7813 44.8255C38.7373 45.3281 37.8673 45.9951 37.1713 46.8265C36.4753 47.6385 35.9533 48.5568 35.6053 49.5815C35.2766 50.6061 35.1123 51.6211 35.1123 52.6265C35.1123 53.7671 35.3346 54.8885 35.7793 55.9905C36.224 57.0731 36.833 58.0398 37.6063 58.8905C38.399 59.7218 39.3173 60.3985 40.3613 60.9205C41.4053 61.4231 42.5363 61.6745 43.7543 61.6745C44.1023 61.6745 44.5083 61.6358 44.9723 61.5585C45.4556 61.4811 45.9293 61.3361 46.3933 61.1235C46.8573 60.8915 47.2826 60.5725 47.6693 60.1665C48.0753 59.7605 48.3846 59.2288 48.5973 58.5715H48.8873V61.7905C48.5973 61.7905 48.288 61.8291 47.9593 61.9065C47.65 61.9838 47.302 62.0708 46.9153 62.1675C46.4126 62.3028 45.852 62.4285 45.2333 62.5445C44.634 62.6605 43.996 62.7185 43.3193 62.7185C41.6373 62.7185 40.1583 62.4285 38.8823 61.8485C37.6063 61.2685 36.543 60.5145 35.6923 59.5865C34.8416 58.6585 34.2036 57.6145 33.7783 56.4545C33.353 55.2751 33.1403 54.0861 33.1403 52.8875C33.1403 51.6888 33.353 50.4998 33.7783 49.3205C34.2036 48.1411 34.8513 47.0875 35.7213 46.1595C36.5913 45.2121 37.6836 44.4485 38.9983 43.8685C40.313 43.2885 41.8596 42.9985 43.6383 42.9985C44.2763 42.9985 44.8466 43.0565 45.3493 43.1725C45.8713 43.2885 46.3353 43.4045 46.7413 43.5205C47.0313 43.6171 47.2923 43.6945 47.5243 43.7525C47.7756 43.7911 48.0173 43.8105 48.2493 43.8105V47.0295H47.9593C47.8433 46.4301 47.6306 45.9371 47.3213 45.5505C47.012 45.1445 46.6446 44.8351 46.2193 44.6225C45.8133 44.4098 45.3686 44.2648 44.8853 44.1875C44.4213 44.0908 43.967 44.0425 43.5223 44.0425ZM64.6937 62.1385H64.8387C64.974 62.1385 65.0997 62.0901 65.2157 61.9935C65.3317 61.8775 65.4283 61.7421 65.5057 61.5875C65.6023 61.4135 65.67 61.2395 65.7087 61.0655C65.7473 60.8721 65.7667 60.6981 65.7667 60.5435V52.6555H56.4867V60.5435C56.4867 60.6981 56.506 60.8721 56.5447 61.0655C56.5833 61.2395 56.6413 61.4038 56.7187 61.5585C56.796 61.7131 56.883 61.8485 56.9797 61.9645C57.0957 62.0805 57.231 62.1385 57.3857 62.1385H57.5307V62.4285H53.4707V62.1385H53.6157C53.751 62.1385 53.8767 62.0901 53.9927 61.9935C54.1087 61.8775 54.2053 61.7421 54.2827 61.5875C54.3793 61.4135 54.447 61.2395 54.4857 61.0655C54.5243 60.8721 54.5437 60.6981 54.5437 60.5435V45.0865C54.5437 44.9511 54.5243 44.7965 54.4857 44.6225C54.447 44.4485 54.389 44.2841 54.3117 44.1295C54.2343 43.9748 54.1377 43.8491 54.0217 43.7525C53.9057 43.6365 53.7703 43.5785 53.6157 43.5785H53.4707V43.2885H57.5307V43.5785H57.3857C57.231 43.5785 57.0957 43.6365 56.9797 43.7525C56.8637 43.8491 56.767 43.9748 56.6897 44.1295C56.6317 44.2841 56.5833 44.4485 56.5447 44.6225C56.506 44.7965 56.4867 44.9511 56.4867 45.0865V51.6405H65.7667V45.0865C65.7667 44.9511 65.7473 44.7965 65.7087 44.6225C65.67 44.4485 65.612 44.2841 65.5347 44.1295C65.4573 43.9748 65.3607 43.8491 65.2447 43.7525C65.1287 43.6365 64.9933 43.5785 64.8387 43.5785H64.6937V43.2885H68.7537V43.5785H68.6087C68.454 43.5785 68.3187 43.6365 68.2027 43.7525C68.0867 43.8491 67.99 43.9748 67.9127 44.1295C67.8547 44.2841 67.8063 44.4485 67.7677 44.6225C67.729 44.7965 67.7097 44.9511 67.7097 45.0865V60.5435C67.7097 60.6981 67.729 60.8721 67.7677 61.0655C67.8257 61.2395 67.8933 61.4038 67.9707 61.5585C68.048 61.7131 68.135 61.8485 68.2317 61.9645C68.3477 62.0805 68.4733 62.1385 68.6087 62.1385H68.7537V62.4285H64.6937V62.1385ZM83.9807 62.1385H84.1257C84.5897 62.1385 84.8217 61.9258 84.8217 61.5005C84.8217 61.3458 84.7927 61.1815 84.7347 61.0075L82.1247 53.9605H77.0497L74.5267 60.8915C74.4687 61.0461 74.4397 61.1911 74.4397 61.3265C74.4397 61.5778 74.5074 61.7808 74.6427 61.9355C74.778 62.0708 74.923 62.1385 75.0777 62.1385H75.2227V62.4285H72.0037V62.1385H72.1487C72.4 62.1385 72.6417 61.9935 72.8737 61.7035C73.125 61.3941 73.328 61.0365 73.4827 60.6305L80.1237 42.9405L86.6197 60.4565C86.755 60.8431 86.9387 61.2201 87.1707 61.5875C87.422 61.9548 87.741 62.1385 88.1277 62.1385H88.2727V62.4285H83.9807V62.1385ZM77.3397 52.9745H81.8057L79.5727 46.9135L77.3397 52.9745ZM101.021 62.1385H101.166C101.302 62.1385 101.427 62.0805 101.543 61.9645C101.659 61.8485 101.756 61.7131 101.833 61.5585C101.93 61.4038 101.998 61.2395 102.036 61.0655C102.075 60.8721 102.094 60.6981 102.094 60.5435V45.1155C102.094 44.9801 102.075 44.8255 102.036 44.6515C101.998 44.4775 101.93 44.3131 101.833 44.1585C101.756 43.9845 101.65 43.8491 101.514 43.7525C101.398 43.6365 101.263 43.5785 101.108 43.5785H100.963V43.2885H105.719C107.517 43.2885 108.919 43.6848 109.924 44.4775C110.949 45.2701 111.461 46.3238 111.461 47.6385C111.461 48.1991 111.365 48.7018 111.171 49.1465C110.978 49.5911 110.727 49.9875 110.417 50.3355C110.127 50.6835 109.808 50.9831 109.46 51.2345C109.112 51.4665 108.784 51.6598 108.474 51.8145C109.286 51.9691 109.963 52.2301 110.504 52.5975C111.046 52.9648 111.481 53.3901 111.809 53.8735C112.157 54.3375 112.399 54.8401 112.534 55.3815C112.67 55.9228 112.737 56.4545 112.737 56.9765C112.737 57.9818 112.554 58.8325 112.186 59.5285C111.819 60.2051 111.326 60.7658 110.707 61.2105C110.108 61.6358 109.412 61.9451 108.619 62.1385C107.846 62.3318 107.044 62.4285 106.212 62.4285H101.021V62.1385ZM110.765 57.1505C110.611 55.6618 110.108 54.5115 109.257 53.6995C108.407 52.8875 107.208 52.4815 105.661 52.4815H104.037V61.4715H105.719C107.285 61.4715 108.513 61.1235 109.402 60.4275C110.311 59.7121 110.765 58.7261 110.765 57.4695V57.1505ZM109.576 47.8995C109.518 46.7781 109.122 45.8888 108.387 45.2315C107.672 44.5741 106.705 44.2455 105.487 44.2455H104.037V51.5535H105.545C106.357 51.5535 107.015 51.4471 107.517 51.2345C108.039 51.0218 108.455 50.7511 108.764 50.4225C109.074 50.0745 109.286 49.6975 109.402 49.2915C109.518 48.8855 109.576 48.4891 109.576 48.1025V47.8995ZM126.138 44.0425C124.708 44.0425 123.461 44.3035 122.397 44.8255C121.353 45.3281 120.483 45.9951 119.787 46.8265C119.091 47.6385 118.569 48.5568 118.221 49.5815C117.893 50.6061 117.728 51.6211 117.728 52.6265C117.728 53.7671 117.951 54.8885 118.395 55.9905C118.84 57.0731 119.449 58.0398 120.222 58.8905C121.015 59.7218 121.933 60.3985 122.977 60.9205C124.021 61.4231 125.152 61.6745 126.37 61.6745C126.718 61.6745 127.124 61.6358 127.588 61.5585C128.072 61.4811 128.545 61.3361 129.009 61.1235C129.473 60.8915 129.899 60.5725 130.285 60.1665C130.691 59.7605 131.001 59.2288 131.213 58.5715H131.503V61.7905C131.213 61.7905 130.904 61.8291 130.575 61.9065C130.266 61.9838 129.918 62.0708 129.531 62.1675C129.029 62.3028 128.468 62.4285 127.849 62.5445C127.25 62.6605 126.612 62.7185 125.935 62.7185C124.253 62.7185 122.774 62.4285 121.498 61.8485C120.222 61.2685 119.159 60.5145 118.308 59.5865C117.458 58.6585 116.82 57.6145 116.394 56.4545C115.969 55.2751 115.756 54.0861 115.756 52.8875C115.756 51.6888 115.969 50.4998 116.394 49.3205C116.82 48.1411 117.467 47.0875 118.337 46.1595C119.207 45.2121 120.3 44.4485 121.614 43.8685C122.929 43.2885 124.476 42.9985 126.254 42.9985C126.892 42.9985 127.463 43.0565 127.965 43.1725C128.487 43.2885 128.951 43.4045 129.357 43.5205C129.647 43.6171 129.908 43.6945 130.14 43.7525C130.392 43.7911 130.633 43.8105 130.865 43.8105V47.0295H130.575C130.459 46.4301 130.247 45.9371 129.937 45.5505C129.628 45.1445 129.261 44.8351 128.835 44.6225C128.429 44.4098 127.985 44.2648 127.501 44.1875C127.037 44.0908 126.583 44.0425 126.138 44.0425ZM135.739 62.1385H135.884C136.038 62.1385 136.174 62.0901 136.29 61.9935C136.406 61.8775 136.502 61.7421 136.58 61.5875C136.676 61.4328 136.744 61.2685 136.783 61.0945C136.841 60.9205 136.87 60.7561 136.87 60.6015V45.0865C136.87 44.9511 136.841 44.7965 136.783 44.6225C136.744 44.4485 136.676 44.2841 136.58 44.1295C136.502 43.9748 136.406 43.8491 136.29 43.7525C136.174 43.6365 136.038 43.5785 135.884 43.5785H135.739V43.2885H146.904V45.9855H146.614C146.575 45.5408 146.401 45.1541 146.092 44.8255C145.782 44.4775 145.299 44.3035 144.642 44.3035H138.813V51.6405H143.627C144.071 51.6405 144.439 51.5051 144.729 51.2345C145.038 50.9638 145.193 50.6448 145.193 50.2775H145.483V53.9025H145.193C145.193 53.5545 145.048 53.2548 144.758 53.0035C144.468 52.7521 144.091 52.6265 143.627 52.6265H138.813V61.4135H145.164C145.531 61.4135 145.85 61.3265 146.121 61.1525C146.391 60.9785 146.614 60.7755 146.788 60.5435C146.981 60.2921 147.116 60.0311 147.194 59.7605C147.29 59.4705 147.339 59.2288 147.339 59.0355H147.629V62.4285H135.739V62.1385ZM155.585 62.1385H155.73V62.4285H151.554V62.1385H151.699C151.854 62.1385 151.989 62.0901 152.105 61.9935C152.221 61.8775 152.318 61.7421 152.395 61.5875C152.492 61.4328 152.559 61.2685 152.598 61.0945C152.637 60.9205 152.656 60.7561 152.656 60.6015V45.0865C152.656 44.9511 152.637 44.7965 152.598 44.6225C152.559 44.4485 152.492 44.2841 152.395 44.1295C152.318 43.9748 152.221 43.8491 152.105 43.7525C151.989 43.6365 151.854 43.5785 151.699 43.5785H151.554V43.2885H162.719V46.3625H162.429C162.429 45.6665 162.274 45.1541 161.965 44.8255C161.675 44.4775 161.211 44.3035 160.573 44.3035H154.628V60.6015C154.628 60.7561 154.647 60.9205 154.686 61.0945C154.725 61.2685 154.783 61.4328 154.86 61.5875C154.957 61.7421 155.063 61.8775 155.179 61.9935C155.295 62.0901 155.43 62.1385 155.585 62.1385ZM179.03 61.4135V65.0385H178.74C178.721 64.7871 178.653 64.5068 178.537 64.1975C178.421 63.8881 178.257 63.5981 178.044 63.3275C177.851 63.0761 177.619 62.8635 177.348 62.6895C177.078 62.5155 176.778 62.4285 176.449 62.4285H163.08C162.752 62.4285 162.452 62.5155 162.181 62.6895C161.911 62.8828 161.669 63.1051 161.456 63.3565C161.263 63.6271 161.099 63.9171 160.963 64.2265C160.847 64.5358 160.78 64.8065 160.76 65.0385H160.47V61.4135H161.746C162.365 61.4135 162.8 61.0558 163.051 60.3405L169.721 42.8535L176.449 60.2535C176.585 60.5435 176.768 60.8141 177 61.0655C177.232 61.2975 177.503 61.4135 177.812 61.4135H179.03ZM163.689 61.4135H174.854L169.257 47.0005L163.689 61.4135ZM194.206 62.1385H194.351C194.815 62.1385 195.047 61.9258 195.047 61.5005C195.047 61.3458 195.018 61.1815 194.96 61.0075L192.35 53.9605H187.275L184.752 60.8915C184.694 61.0461 184.665 61.1911 184.665 61.3265C184.665 61.5778 184.732 61.7808 184.868 61.9355C185.003 62.0708 185.148 62.1385 185.303 62.1385H185.448V62.4285H182.229V62.1385H182.374C182.625 62.1385 182.867 61.9935 183.099 61.7035C183.35 61.3941 183.553 61.0365 183.708 60.6305L190.349 42.9405L196.845 60.4565C196.98 60.8431 197.164 61.2201 197.396 61.5875C197.647 61.9548 197.966 62.1385 198.353 62.1385H198.498V62.4285H194.206V62.1385ZM187.565 52.9745H192.031L189.798 46.9135L187.565 52.9745Z" fill="white"/>
<path d="M106.628 14.2875C106.628 17.809 104.917 21.0328 103.161 23.4062C102.287 24.5874 101.412 25.5442 100.757 26.2052C100.446 26.5184 100.185 26.7645 99.9975 26.936C99.8099 26.7645 99.5489 26.5184 99.2383 26.2052C98.5825 25.5442 97.708 24.5874 96.8342 23.4062C95.0785 21.0328 93.367 17.809 93.367 14.2875C93.367 10.766 95.0785 7.54228 96.8342 5.16881C97.708 3.98759 98.5825 3.03081 99.2383 2.36979C99.5489 2.05666 99.8099 1.81053 99.9975 1.63902C100.185 1.81053 100.446 2.05666 100.757 2.36979C101.412 3.03081 102.287 3.98759 103.161 5.16881C104.917 7.54228 106.628 10.766 106.628 14.2875Z" stroke="white"/>
<path d="M96.5495 12.9527C98.7649 15.481 99.6192 19.1481 99.905 22.2534C100.047 23.7969 100.047 25.1794 100.011 26.1757C99.9928 26.6735 99.9659 27.0737 99.9438 27.3481C99.9437 27.3492 99.9436 27.3504 99.9435 27.3516C99.9424 27.3517 99.9414 27.3518 99.9404 27.3519C99.7 27.3772 99.3493 27.4079 98.9132 27.4284C98.0401 27.4695 96.8287 27.4699 95.4763 27.3077C92.7554 26.9815 89.5422 26.0065 87.3268 23.4782C85.1115 20.95 84.2572 17.2828 83.9713 14.1775C83.8292 12.634 83.8296 11.2516 83.8656 10.2552C83.8836 9.75744 83.9104 9.35723 83.9326 9.08286C83.9327 9.08168 83.9328 9.0805 83.9329 9.07932C83.9339 9.07921 83.935 9.0791 83.936 9.07899C84.1764 9.05367 84.5271 9.02304 84.9632 9.00251C85.8363 8.96141 87.0476 8.961 88.4001 9.12317C91.121 9.44945 94.3342 10.4244 96.5495 12.9527Z" stroke="white"/>
<path d="M103.768 12.9527C101.553 15.481 100.698 19.1481 100.412 22.2534C100.27 23.7969 100.271 25.1794 100.307 26.1757C100.325 26.6735 100.351 27.0737 100.374 27.3481C100.374 27.3492 100.374 27.3504 100.374 27.3516C100.375 27.3517 100.376 27.3518 100.377 27.3519C100.617 27.3772 100.968 27.4079 101.404 27.4284C102.277 27.4695 103.489 27.4699 104.841 27.3077C107.562 26.9815 110.775 26.0065 112.991 23.4782C115.206 20.95 116.06 17.2828 116.346 14.1775C116.488 12.634 116.488 11.2516 116.452 10.2552C116.434 9.75744 116.407 9.35723 116.385 9.08286C116.385 9.08168 116.385 9.0805 116.385 9.07932C116.384 9.07921 116.382 9.0791 116.381 9.07899C116.141 9.05367 115.79 9.02304 115.354 9.00251C114.481 8.96141 113.27 8.961 111.917 9.12317C109.196 9.44945 105.983 10.4244 103.768 12.9527Z" stroke="white"/>
<path d="M67.4552 17.8979H0.873535" stroke="white"/>
<path d="M199.139 17.898L131.078 17.8979" stroke="white"/>
</svg>
